<svg width="24" height="24" fill="none" xmlns="http://www.w3.org/2000/svg"><path d="M14.94 11.09c1.65-.99 3.52-1.54 5.61-1.54.66 0 1.32.11 1.98.22-.88-4.4-4.29-7.92-8.8-8.8.11.66.22 1.32.22 1.98 0 2.09-.55 4.07-1.65 5.72.99.66 1.87 1.54 2.64 2.42zM9.11 9.22c-2.2-1.21-4.62-1.87-7.26-1.87h-.22C1.08 8.67.75 9.99.75 11.53c.66.11 1.43.22 2.2.22 2.42 0 4.62-.99 6.16-2.53zm2.64-6.27c0-.77-.11-1.54-.22-2.2-3.52.11-6.6 1.87-8.58 4.4 2.75.22 5.28.99 7.59 2.31a8.917 8.917 0 001.21-4.51zm1.43 9.46c-.66-.77-1.43-1.43-2.2-1.98-1.98 2.09-4.84 3.52-8.03 3.52-.66 0-1.32-.11-1.98-.22.88 4.4 4.29 7.92 8.8 8.8-.11-.66-.22-1.32-.22-1.98 0-3.3 1.43-6.16 3.63-8.14zm7.37-.66c-1.54 0-2.97.44-4.18 1.1 1.43 2.09 2.42 4.4 2.86 7.04 2.09-1.98 3.41-4.73 3.52-7.81-.66-.22-1.43-.33-2.2-.33zm-8.8 8.8c0 .77.11 1.54.22 2.2 1.87 0 3.63-.55 5.17-1.43-.22-2.64-1.21-5.06-2.64-7.15-1.65 1.54-2.75 3.85-2.75 6.38z" fill="#000" fill-opacity=".7"/></svg>