<svg width="17" height="16" fill="none" xmlns="http://www.w3.org/2000/svg"><path clip-rule="evenodd" d="M3.207 4.853a6.468 6.468 0 109.148 9.148 6.468 6.468 0 00-9.148-9.148zm5.106-1.218c.653.06 1.296.234 1.902.514L9.872 5.43a4.499 4.499 0 00-1.905-.503l.346-1.293zM3.667 5.313c.238-.238.494-.445.76-.634l.942.942a4.511 4.511 0 00-.776.619c-.24.24-.443.5-.618.775l-.942-.942c.189-.266.396-.522.634-.76zm-1.165 6.548a5.803 5.803 0 01-.514-1.902l1.293-.346c.027.656.192 1.308.504 1.905l-1.283.343zm4.747 3.36a5.803 5.803 0 01-1.902-.515l.343-1.283c.597.312 1.25.477 1.906.504l-.347 1.293zm-2.168-3.093a3.819 3.819 0 115.4-5.401 3.819 3.819 0 01-5.4 5.4zm6.814 1.414a5.81 5.81 0 01-.76.633l-.942-.942a4.49 4.49 0 00.776-.618c.24-.24.444-.5.618-.775l.942.941a5.801 5.801 0 01-.634.76zm1.679-4.646l-1.293.346a4.5 4.5 0 00-.504-1.906l1.283-.343c.28.607.454 1.25.514 1.903z"/><path clip-rule="evenodd" d="M10.093.104a5.586 5.586 0 00-4.53 2.313 7.346 7.346 0 012.218-.34 7.35 7.35 0 012.162.322l.15-.003c1.352 0 2.514.813 3.025 1.976A7.328 7.328 0 0115.046 8.3 5.594 5.594 0 0010.093.105zm.845 1.792a4.011 4.011 0 00-.86-.096 4.01 4.01 0 00-.86.096V.744c.282-.048.569-.078.86-.078.291 0 .578.03.86.078v1.152zm2.877 2.637a3.89 3.89 0 00-.857-1.473l1.003-.579c.363.436.65.936.849 1.478l-.995.574zM9.091 9.42a1.419 1.419 0 00-.452-.276 7.196 7.196 0 00-.67-.21V7.52c.281.093.47.281.543.564.064.24.212.36.429.36a.404.404 0 00.297-.124.409.409 0 00.123-.294.845.845 0 00-.08-.337 1.459 1.459 0 00-.23-.356 1.254 1.254 0 00-.458-.34 2.044 2.044 0 00-.624-.149v-.248c0-.186-.048-.28-.19-.28-.138 0-.185.096-.185.286v.242c-.5.041-.812.186-1.053.435-.242.249-.365.568-.365.958 0 .299.06.543.184.733.123.19.289.337.488.44.198.103.433.197.746.28v1.58a.828.828 0 01-.564-.457 4.32 4.32 0 01-.157-.427.367.367 0 00-.144-.2.429.429 0 00-.251-.071.412.412 0 00-.31.13.418.418 0 00-.124.294c0 .148.03.297.093.45.061.153.157.3.286.442.129.141.296.26.488.355.194.095.401.157.683.187v.26c0 .103.01.18.042.23.032.05.085.075.164.075.086 0 .124-.031.149-.092.025-.061.02-.159.02-.292v-.188c.343-.028.604-.112.834-.255a1.44 1.44 0 00.53-.552 1.547 1.547 0 00.072-1.294 1.259 1.259 0 00-.314-.446zm-1.497-.611a1.184 1.184 0 01-.45-.25c-.096-.092-.148-.227-.148-.406 0-.188.057-.329.16-.421a.95.95 0 01.438-.224v1.3zm.908 2.22c-.121.138-.283.23-.533.275V9.816c.25.075.42.166.538.273.118.108.177.26.177.457 0 .184-.06.345-.182.482z"/></svg>