<svg width="24" height="24" fill="none" xmlns="http://www.w3.org/2000/svg"><path d="M11.779 7.856a.504.504 0 00-.352-.145H8.814L6.212 4.974 5.54 2.886a.502.502 0 00-.116-.193l-1.061-1.1a.502.502 0 00-.711-.008L.821 4.386a.496.496 0 000 .707l1.061 1.059c.057.059.126.1.203.123l2.125.67 2.706 2.599v2.617c0 .131.052.258.145.352l9.784 9.898a.496.496 0 00.583.091l1.335-.686a.467.467 0 00.13-.096l2.108-2.166a.52.52 0 00.08-.106l.685-1.244a.503.503 0 00-.087-.599l-9.9-9.749zm10.962 4.301c-.756-.756-2.073-.756-2.828 0a2 2 0 002.829 2.828 2.002 2.002 0 00-.001-2.828z" fill="#000" fill-opacity=".7"/></svg>