<svg width="24" height="24" fill="none" xmlns="http://www.w3.org/2000/svg"><g clip-path="url(#clip0_70_471)"><path d="M8.396 10.995L12 8.384l3.604 2.611-1.37 4.22H9.779l-1.382-4.22zM12 .75c1.523 0 2.98.297 4.37.891 1.389.595 2.586 1.394 3.59 2.399 1.005 1.004 1.804 2.201 2.398 3.59.595 1.39.892 2.847.892 4.37 0 1.523-.297 2.98-.892 4.37-.594 1.389-1.393 2.586-2.398 3.59-1.004 1.005-2.201 1.804-3.59 2.398-1.39.595-2.847.892-4.37.892-1.523 0-2.98-.297-4.37-.892-1.389-.594-2.586-1.393-3.59-2.398-1.005-1.004-1.804-2.201-2.399-3.59A10.997 10.997 0 01.75 12c0-1.523.297-2.98.891-4.37.595-1.389 1.394-2.586 2.399-3.59 1.004-1.005 2.2-1.804 3.59-2.4A10.998 10.998 0 0112 .75zm7.772 16.95c1.247-1.699 1.87-3.599 1.87-5.7v-.038l-1.28 1.118-3.013-2.813.79-4.055 1.683.15c-1.255-1.724-2.883-2.904-4.884-3.54l.665 1.557L12 6.375 8.396 4.379l.666-1.557c-2 .636-3.629 1.816-4.884 3.54l1.695-.15.778 4.055-3.013 2.813-1.28-1.118V12c0 2.101.623 4.001 1.87 5.7l.377-1.657 4.093.502 1.745 3.742-1.456.866a9.47 9.47 0 003.013.49 9.47 9.47 0 003.013-.49l-1.456-.866 1.745-3.742 4.093-.502.377 1.657z" fill="#000" fill-opacity=".7"/></g><defs><clipPath id="clip0_70_471"><path fill="#fff" d="M0 0h24v24H0z"/></clipPath></defs></svg>