<svg width="17" height="16" fill="none" xmlns="http://www.w3.org/2000/svg"><g clip-path="url(#clip0_301_2212)"><path d="M16.358 11.072l-1.593-1.563a.469.469 0 00-.328-.134H2.563a.469.469 0 00-.328.134L.642 11.072a.469.469 0 00.328.803h5.468a.47.47 0 00.328-.134l1.734-1.7 1.734 1.7a.469.469 0 00.329.134h5.467c.42 0 .628-.51.328-.803zM8.5 0a4.224 4.224 0 00-4.219 4.219A4.224 4.224 0 008.5 8.437a4.224 4.224 0 004.219-4.218A4.224 4.224 0 008.5 0zm1.567 5.275c-.117.655-.742 1.131-1.485 1.131a2.08 2.08 0 01-1.546-.663.469.469 0 01.695-.63c.202.223.52.356.85.356.313 0 .531-.183.563-.359.041-.233-.316-.384-.426-.424a18.722 18.722 0 01-1.029-.418.466.466 0 01-.065-.035 1.131 1.131 0 01-.504-1.12c.068-.474.414-.86.903-1.008.938-.282 1.712.333 1.777.386l.001.001.003.003a.468.468 0 11-.603.717l.003.003c-.004-.004-.442-.353-.91-.212-.2.06-.239.19-.246.243a.2.2 0 00.066.185c.126.055.513.222.928.375.89.328 1.113.974 1.025 1.469z"/><path d="M6.438 12.813H2.093v2.718c0 .26.21.469.469.469H8.03v-4.187l-.609.597c-.264.26-.614.402-.984.402zm3.14-.403l-.61-.597V16h5.47c.258 0 .468-.21.468-.469v-2.719h-4.344c-.37 0-.72-.142-.984-.402z"/></g><defs><clipPath id="clip0_301_2212"><path fill="#fff" transform="translate(.5)" d="M0 0h16v16H0z"/></clipPath></defs></svg>