<svg width="24" height="24" fill="none" xmlns="http://www.w3.org/2000/svg"><path fill-rule="evenodd" clip-rule="evenodd" d="M1 15.86L8.14 23l4.26-4.26-7.14-7.14L1 15.86zm2.86 0l1.43-1.43 4.3 4.3-1.43 1.43-4.3-4.3zm10.7-.7l-5.7-5.7L11 5.89l7.14 7.14-3.57 2.14-.01-.01zm7.86-6.43l-1.36 1.36c-.03.03-.06.03-.1.05a1 1 0 01-.63.24c-.26 0-.52-.1-.7-.3a1 1 0 01-.05-1.34c.02-.03.03-.06.05-.08l1.36-1.36-1.43-1.43-1.36 1.36c-.2.2-.46.3-.7.3a1 1 0 01-.71-.3c-.4-.4-.4-1.03 0-1.43l1.36-1.36-1.43-1.43-1.36 1.36c-.02.03-.06.03-.08.06-.18.15-.4.24-.63.24-.26 0-.52-.1-.7-.3a1 1 0 01-.05-1.34c.02-.03.03-.06.05-.08l.65-.64.7-.7c-.4-.4-.9-.6-1.43-.6-.53 0-1.03.2-1.43.6L9.72 4.28c-.12.12-.22.24-.3.38L6.32 9.8l.37.37 7.5 7.5 5.14-3.1c.14-.08.27-.2.38-.3l2.68-2.68c.8-.8.8-2.07 0-2.86h.03z" fill="#000" fill-opacity=".7"/></svg>