<svg width="24" height="24" fill="none" xmlns="http://www.w3.org/2000/svg"><g clip-path="url(#clip0_70_501)"><path d="M12 8c-2.21 0-4 1.79-4 4s1.79 4 4 4 4-1.79 4-4-1.79-4-4-4zm8.94 3A8.994 8.994 0 0013 3.06V1h-2v2.06A8.994 8.994 0 003.06 11H1v2h2.06A8.994 8.994 0 0011 20.94V23h2v-2.06A8.994 8.994 0 0020.94 13H23v-2h-2.06zM12 19c-3.865 0-7-3.135-7-7s3.135-7 7-7 7 3.135 7 7-3.135 7-7 7z" fill="#000" fill-opacity=".7"/></g><defs><clipPath id="clip0_70_501"><path fill="#fff" d="M0 0h24v24H0z"/></clipPath></defs></svg>