<svg width="24" height="24" fill="none" xmlns="http://www.w3.org/2000/svg"><g clip-path="url(#clip0_70_479)" fill="#000" fill-opacity=".7"><path d="M16.184 11.654l-.015.142-.082.118c-.011.016-1.204 1.792-.248 3.267.42.648 1.15 1.4 1.9 2.088a9.047 9.047 0 003.63-2.231c3.235-3.235 3.527-8.187.653-11.061-2.452-2.453-6.418-2.597-9.538-.577.332.257.651.534.952.835 2.01 2.01 3.037 4.783 2.748 7.42zM8.76 18.235A8.682 8.682 0 016.4 17.9c-1.197 1.073-2.35 1.928-2.35 1.928s.12.48.881 1.241c.76.76 1.24.881 1.24.881s1.685-2.273 3.295-3.748a8.33 8.33 0 01-.706.033z"/><path d="M8.834 17.667l6.832-6.833c.02-2.168-.865-4.44-2.628-6.203-3.235-3.235-8.187-3.527-11.06-.653-2.874 2.873-2.582 7.826.653 11.06 1.763 1.763 4.035 2.65 6.203 2.629zm6.533-2.181c-1.181-1.822.257-3.895.257-3.895l.001-.009-6.043 6.044.009-.001s2.073-1.439 3.894-.258c1.821 1.18 4.343 4.583 4.343 4.583s.48-.12 1.24-.88c.761-.761.881-1.242.881-1.242s-3.402-2.521-4.583-4.342z"/></g><defs><clipPath id="clip0_70_479"><path fill="#fff" d="M0 0h24v24H0z"/></clipPath></defs></svg>