<svg width="20" height="20" fill="none" xmlns="http://www.w3.org/2000/svg"><g clip-path="url(#clip0_9_223)"><path d="M14.583 10a.417.417 0 010-.833A4.172 4.172 0 0018.75 5V1.667H15a.417.417 0 010-.834h4.167c.23 0 .416.187.416.417V5a5.006 5.006 0 01-5 5zm-9.166 0a5.006 5.006 0 01-5-5V1.25c0-.23.186-.417.416-.417H5a.417.417 0 010 .834H1.25V5a4.172 4.172 0 004.167 4.167.417.417 0 010 .833zm7.189 6.607l-.224-.23c-.874-.899-1.114-3.41-1.132-4.302a.417.417 0 00-.417-.408H9.167a.417.417 0 00-.417.407c-.018.892-.258 3.402-1.132 4.302l-.224.23c-1.144 1.177-1.978 2.028-1.978 2.977 0 .23.187.417.417.417h8.334c.23 0 .416-.186.416-.417 0-.949-.833-1.8-1.977-2.976z" fill="#FFA000"/><path d="M15 0H5a.417.417 0 00-.417.417v6.666A5.49 5.49 0 0010 12.5a5.49 5.49 0 005.417-5.417V.417A.417.417 0 0015 0z" fill="#FFC107"/></g><defs><clipPath id="clip0_9_223"><path fill="#fff" d="M0 0h20v20H0z"/></clipPath></defs></svg>