<svg width="24" height="24" fill="none" xmlns="http://www.w3.org/2000/svg"><path fill-rule="evenodd" clip-rule="evenodd" d="M13.125 23.148c-.49.067-.99.102-1.5.102-5.191 0-9.533-3.637-10.615-8.503 3.338 3.063 7.98 4.561 13.256 3.94-.005.12-.012.24-.02.359-.114 1.566-.557 3.075-1.121 4.101zm1.567-.337c.683-.2 1.344-.467 1.974-.797 3.186-5.723 2.544-11.616-1.572-14.873a11.713 11.713 0 00-1.228 5.051c1.316 2.126 1.83 4.519 1.655 6.946a12.492 12.492 0 01-.829 3.673zm4.087-2.245a10.85 10.85 0 003.721-8.191c0-3.652-1.8-6.884-4.562-8.856a11.391 11.391 0 00-2.212 2.515c.046.021.09.048.133.08 4.161 3.27 5.195 8.858 2.92 14.452zM16.805 2.81a10.801 10.801 0 00-2.948-1.08c-3.236 1.388-6.31 5.385-6.388 9.525 1.53.374 3.235.532 5.132.462.17-3.376 1.645-6.6 4.204-8.907zM11.65 1.5h-.026a10.877 10.877 0 00-9.991 6.575 12.156 12.156 0 004.568 2.808c.205-3.808 2.572-7.41 5.449-9.383zM1.165 9.388c-.301 1.06-.44 2.16-.411 3.262 3.122 3.609 7.902 5.446 13.49 4.751a9.983 9.983 0 00-1.392-4.414C7.87 13.21 4.03 11.953 1.165 9.388z" fill="#000" fill-opacity=".7"/></svg>