<svg width="24" height="24" fill="none" xmlns="http://www.w3.org/2000/svg"><g clip-path="url(#clip0_70_477)"><path fill-rule="evenodd" clip-rule="evenodd" d="M12.163.759c4.728 0 8.775 2.934 10.409 7.086-.703 1.268-1.955 2.564-4.22 4.457-5.458 4.579-5.408 5.98-5.408 8.11 0 .826.426 1.745.952 2.57a11.2 11.2 0 01-1.727.133c-3.112 0-5.93-1.274-7.956-3.328 2.774-1.229 3.333-3.493 3.383-5.719.05-2.547-2.287-6.915-2.652-9.201-.072-.449-.055-.953.022-1.473A11.137 11.137 0 0112.174.76h-.01zm11.078 9.683c.067.493.1.99.1 1.5 0 4.85-3.09 8.98-7.407 10.53-3.998-4.385 3.753-8.387 6.267-10.84.393-.382.736-.78 1.046-1.185l-.006-.005zm-20.058 8.16A11.132 11.132 0 01.98 11.937a11.1 11.1 0 012.264-6.744c.017.576.133 1.174.388 1.91.83 2.392 2.081 4.214 2.236 7.23.156 3.018-1.821 3.694-1.821 3.694s-.387.243-.864.58v-.005z" fill="#000" fill-opacity=".7"/></g><defs><clipPath id="clip0_70_477"><path fill="#fff" d="M0 0h24v24H0z"/></clipPath></defs></svg>