<svg width="24" height="24" fill="none" xmlns="http://www.w3.org/2000/svg"><path d="M2.284 14.039a14.184 14.184 0 00-.773 5.17c.04.94.731 1.733 1.67 1.913 1.213.234 3.084.414 5.308.028l-6.205-7.111zM21.716 9.96a14.18 14.18 0 00.773-5.17 2.048 2.048 0 00-1.67-1.913 14.836 14.836 0 00-5.308-.028l6.205 7.111zm-6.843-6.986c-2.262.493-4.841 1.588-7.442 3.788-2.601 2.201-4.09 4.546-4.926 6.673l6.622 7.59c2.262-.494 4.841-1.59 7.442-3.79s4.09-4.545 4.926-6.672l-6.622-7.59zm1.743 5.49l-1.1.93.93 1.067a.283.283 0 01-.023.401.28.28 0 01-.4-.031l-.938-1.073-1.647 1.393.931 1.067a.282.282 0 11-.424.37l-.937-1.074-1.647 1.394.931 1.066a.281.281 0 11-.424.37l-.936-1.073-1.647 1.393.93 1.067a.282.282 0 01-.423.37l-.937-1.073-1.108.936a.279.279 0 01-.396-.033.281.281 0 01.033-.396l1.1-.931-.93-1.067a.28.28 0 01.337-.44.28.28 0 01.087.07l.936 1.073 1.648-1.393-.931-1.067a.28.28 0 11.424-.37l.937 1.074 1.647-1.394-.931-1.066a.281.281 0 11.424-.37l.936 1.073 1.647-1.394-.93-1.066a.282.282 0 11.424-.37l.936 1.073 1.107-.936a.281.281 0 11.364.43z" fill="#000" fill-opacity=".7"/></svg>