<svg width="20" height="20" fill="none" xmlns="http://www.w3.org/2000/svg"><g clip-path="url(#clip0_230_2868)"><path d="M8.333 0h-7.5A.836.836 0 000 .833V10c0 .458.375.833.833.833h7.5A.836.836 0 009.167 10V.833A.836.836 0 008.333 0zm10.834 9.167h-7.5a.836.836 0 00-.834.833v9.167c0 .458.376.833.834.833h7.5a.836.836 0 00.833-.833V10a.836.836 0 00-.833-.833zM8.333 12.5h-7.5a.836.836 0 00-.833.833v5.834c0 .458.375.833.833.833h7.5a.836.836 0 00.834-.833v-5.834a.836.836 0 00-.834-.833zM19.167 0h-7.5a.836.836 0 00-.834.833v5.834c0 .458.376.833.834.833h7.5A.836.836 0 0020 6.667V.833A.836.836 0 0019.167 0z"/></g><defs><clipPath id="clip0_230_2868"><path d="M0 0h20v20H0z"/></clipPath></defs></svg>