<svg width="21" height="22" fill="none" xmlns="http://www.w3.org/2000/svg"><g clip-path="url(#clip0_359_467)"><path d="M10.24 8.326c.739 0 1.407.3 1.89.784a2.668 2.668 0 01.001 3.78 2.665 2.665 0 01-1.89.784c-.739 0-1.407-.3-1.89-.784A2.665 2.665 0 017.566 11c0-.738.3-1.406.783-1.89a2.665 2.665 0 011.89-.784zM16.8 4.44a.48.48 0 01.678-.679A10.201 10.201 0 0120.476 11c0 2.619-1 5.239-2.998 7.238a.48.48 0 01-.679-.68A9.243 9.243 0 0019.516 11 9.243 9.243 0 0016.8 4.44zM3.681 17.558a.48.48 0 01-.68.679 10.201 10.201 0 01-2.997-7.238c0-2.619 1-5.239 2.998-7.238a.48.48 0 01.679.68 9.244 9.244 0 00-2.717 6.558c0 2.374.905 4.748 2.717 6.559zM14.118 7.122a.48.48 0 01.679-.68A6.422 6.422 0 0116.684 11c0 1.65-.629 3.298-1.887 4.556a.48.48 0 01-.679-.678A5.469 5.469 0 0015.724 11a5.467 5.467 0 00-1.606-3.877zm-7.756 7.755a.48.48 0 01-.679.68A6.422 6.422 0 013.796 11c0-1.65.629-3.298 1.887-4.556a.48.48 0 01.679.679A5.469 5.469 0 004.756 11c0 1.404.536 2.807 1.606 3.877zm5.09-5.089a1.708 1.708 0 00-1.213-.502c-.473 0-.9.192-1.211.502a1.71 1.71 0 000 2.423 1.708 1.708 0 002.423 0 1.711 1.711 0 000-2.423z" fill="#E1921A"/></g><defs><clipPath id="clip0_359_467"><path fill="#fff" transform="translate(0 .76)" d="M0 0h20.48v20.48H0z"/></clipPath></defs></svg>