<svg width="32" height="32" fill="none" xmlns="http://www.w3.org/2000/svg"><rect width="32" height="32" rx="4" fill="#fff" fill-opacity=".12"/><path d="M6.084 22.5v-9.775h-2.55l1.7-2.295h3.179V22.5H6.084zm11.733-.918c-.816.737-1.836 1.105-3.06 1.105s-2.244-.368-3.06-1.105c-.816-.737-1.224-1.666-1.224-2.788 0-1.315.515-2.278 1.547-2.89-.691-.623-1.037-1.428-1.037-2.414 0-.94.345-1.717 1.037-2.329.703-.623 1.615-.935 2.737-.935s2.028.312 2.72.935c.703.612 1.054 1.388 1.054 2.329 0 .975-.346 1.774-1.037 2.397 1.031.635 1.547 1.604 1.547 2.907 0 1.122-.408 2.051-1.224 2.788zm-3.06-1.054c.566 0 1.02-.17 1.36-.51.351-.351.527-.776.527-1.275 0-.499-.176-.918-.527-1.258-.34-.351-.794-.527-1.36-.527-.578 0-1.037.176-1.377.527-.34.34-.51.76-.51 1.258 0 .499.17.924.51 1.275.34.34.799.51 1.377.51zm-1.088-5.831c.294.26.657.391 1.088.391.43 0 .787-.13 1.07-.391.295-.272.443-.606.443-1.003a1.26 1.26 0 00-.442-.986c-.284-.272-.64-.408-1.071-.408-.43 0-.793.136-1.088.408a1.28 1.28 0 00-.425.986c0 .397.142.731.425 1.003zm6.696 3.893v-2.023h2.567V14h2.023v2.567h2.55v2.023h-2.55v2.567h-2.023V18.59h-2.567z" fill="#fff"/></svg>