<svg width="28" height="28" fill="none" xmlns="http://www.w3.org/2000/svg"><path d="M12.92 3.072c.373-.985 1.786-.985 2.16 0l2.415 6.69c.17.442.6.738 1.08.738h5.936c1.096 0 1.575 1.365.712 2.033L21 16.333a1.13 1.13 0 00-.376 1.274l1.543 6.537c.375 1.05-.84 1.952-1.76 1.305l-5.736-3.64a1.167 1.167 0 00-1.342 0l-5.736 3.64c-.919.647-2.135-.256-1.76-1.305l1.543-6.537A1.13 1.13 0 007 16.333l-4.223-3.8c-.864-.668-.383-2.033.711-2.033h5.935a1.153 1.153 0 001.08-.739l2.415-6.69h.002z" stroke="#000" stroke-width="2" stroke-linecap="round" stroke-linejoin="round" opacity=".2"/></svg>