<svg width="24" height="24" fill="none" xmlns="http://www.w3.org/2000/svg"><path fill-rule="evenodd" clip-rule="evenodd" d="M12.263 20.55h-.44a8.674 8.674 0 01-3.63-.792 4.327 4.327 0 00-1.265-3.08 4.365 4.365 0 00-3.08-1.265c-.44-.99-.726-2.057-.77-3.19a8.772 8.772 0 01.77-4.092 4.309 4.309 0 003.08-1.265 4.412 4.412 0 001.265-3.08 8.8 8.8 0 013.201-.78l.429-.056c1.298 0 2.53.286 3.63.792 0 1.122.418 2.244 1.265 3.08a4.412 4.412 0 003.08 1.265 8.817 8.817 0 01.011 7.293 4.327 4.327 0 00-3.08 1.265 4.365 4.365 0 00-1.265 3.08 8.801 8.801 0 01-3.201.781m10.56-9.306A11 11 0 0011.834.75a11 11 0 10-.022 22c.19.001.381-.002.572-.01a11 11 0 0010.417-11.55m-5.478.56a4.4 4.4 0 00-4.4-4.4h-2.2a4.4 4.4 0 100 8.8h2.2a4.4 4.4 0 004.4-4.4z" fill="#000" fill-opacity=".7"/></svg>