<svg width="24" height="24" fill="none" xmlns="http://www.w3.org/2000/svg"><path fill-rule="evenodd" clip-rule="evenodd" d="M15.072 19.89a4.375 4.375 0 00-3.322-1.54c-1.32 0-2.53.605-3.3 1.54-2.2-.88-3.938-2.64-4.84-4.84a4.294 4.294 0 001.54-3.3c0-1.32-.605-2.53-1.54-3.322A8.775 8.775 0 018.428 3.61c.803.935 1.98 1.54 3.3 1.54 1.32 0 2.53-.605 3.322-1.54 2.2.88 3.938 2.64 4.84 4.84a4.357 4.357 0 00-1.54 3.322 4.34 4.34 0 001.54 3.322c-.88 2.2-2.64 3.938-4.84 4.84M11.75.75a11 11 0 100 22 11 11 0 000-22zm0 6.6a4.4 4.4 0 100 8.8 4.4 4.4 0 000-8.8z" fill="#000" fill-opacity=".7"/></svg>