<svg width="17" height="16" fill="none" xmlns="http://www.w3.org/2000/svg"><g clip-path="url(#clip0_301_2220)"><path d="M12.774 6.377a.469.469 0 10-.663.664.469.469 0 00.663-.664zm-5.304 0a.469.469 0 10-.662.663.469.469 0 00.663-.663z"/><path d="M10.786.411a1.408 1.408 0 00-1.99 0L2.769 6.44a.469.469 0 000 .663l1.326 1.326a.469.469 0 11-.663.663L2.105 7.766a.469.469 0 00-.663 0l-.53.53a1.408 1.408 0 000 1.99l5.303 5.303c.548.548 1.44.548 1.988 0l.531-.531a.468.468 0 000-.663l-1.326-1.326a.469.469 0 11.663-.663l1.326 1.326c.183.183.48.183.663 0l6.029-6.029a1.408 1.408 0 000-1.989L10.786.411zm-4.04 11.332a.469.469 0 01-.663 0l-1.326-1.325a.469.469 0 11.663-.663l1.325 1.325a.469.469 0 010 .663zm1.388-4.04a1.408 1.408 0 01-1.989 0 1.408 1.408 0 010-1.988 1.408 1.408 0 011.989 0c.548.548.548 1.44 0 1.988zm2.412 2.78a.468.468 0 01-.552-.367L8.67 3.486a.468.468 0 11.919-.184l1.326 6.63c.05.25-.11.499-.368.551zm2.891-2.78a1.408 1.408 0 01-1.989 0 1.408 1.408 0 010-1.988 1.408 1.408 0 011.99 0 1.41 1.41 0 010 1.988z"/></g><defs><clipPath id="clip0_301_2220"><path fill="#fff" transform="translate(.5)" d="M0 0h16v16H0z"/></clipPath></defs></svg>