<svg width="29" height="29" fill="none" xmlns="http://www.w3.org/2000/svg"><g opacity=".7" fill-rule="evenodd" clip-rule="evenodd" fill="#fff"><path d="M25.376 12.258c.145.716.222 1.457.222 2.217 0 6.116-4.967 11.083-11.084 11.083S3.431 20.59 3.431 14.475c0-6.117 4.966-11.084 11.083-11.084.76 0 1.5.077 2.217.222a.584.584 0 00.233-1.143 12.29 12.29 0 00-2.45-.245c-6.76 0-12.25 5.489-12.25 12.25 0 6.76 5.49 12.25 12.25 12.25 6.761 0 12.25-5.49 12.25-12.25 0-.84-.084-1.658-.245-2.45a.584.584 0 00-1.143.233z"/><path d="M22.682 2.808L22.68 8.64a.584.584 0 001.166 0l.003-5.833a.584.584 0 00-1.167 0z"/><path d="M20.348 6.306l5.833.003a.584.584 0 000-1.167l-5.833-.002a.584.584 0 000 1.166zM9.264 8.641v11.667a.584.584 0 001.167 0V8.64a.584.584 0 00-1.167 0zm11.084 8.167a2.917 2.917 0 00-2.917-2.917h-1.167a2.917 2.917 0 00-2.916 2.917v1.166a2.917 2.917 0 002.916 2.917h1.167a2.917 2.917 0 002.917-2.917v-1.166zm-1.167 0v1.166c0 .465-.184.909-.512 1.238a1.753 1.753 0 01-1.238.512h-1.167c-.464 0-.909-.184-1.238-.512a1.753 1.753 0 01-.512-1.238v-1.166c0-.465.185-.91.512-1.238a1.753 1.753 0 011.238-.513h1.167a1.753 1.753 0 011.75 1.75z"/><path d="M20.348 10.974a2.917 2.917 0 00-2.917-2.916h-1.167a2.916 2.916 0 00-2.916 2.916v1.167a2.916 2.916 0 002.916 2.917h1.167a2.917 2.917 0 002.917-2.917v-1.167zm-1.167 0v1.167a1.753 1.753 0 01-1.75 1.75h-1.167a1.75 1.75 0 01-1.237-.512 1.753 1.753 0 01-.513-1.238v-1.167a1.753 1.753 0 011.75-1.75h1.167c.464 0 .909.185 1.238.512.328.33.512.774.512 1.238z"/></g></svg>