<svg width="17" height="16" fill="none" xmlns="http://www.w3.org/2000/svg"><path d="M5.997 9.386h5.006a.96.96 0 01-.959.959H6.956a.959.959 0 01-.959-.96zM11.9 5.895a.53.53 0 00-.53.53c0 .131.125.344.125.344L10.21 7.938 8.776 6.635a.53.53 0 10-.578-.01L6.78 7.938 5.477 6.753s.154-.23.154-.374a.53.53 0 10-.376.507l.362 1.052.398 1.154h5.006l.378-1.154s.327-1.013.324-1.013a.53.53 0 10.177-1.03zM2.787 7.804a5.695 5.695 0 011.537-3.703l-.003-.003-1.617-1.617A7.974 7.974 0 00.5 7.804h2.287zm1.814-3.98a5.696 5.696 0 013.703-1.537V0a7.973 7.973 0 00-5.322 2.204l1.616 1.617.003.003zm7.799 8.351a5.695 5.695 0 01-3.704 1.538V16a7.972 7.972 0 005.324-2.204l-1.617-1.618-.004-.003zm-4.096 1.538A5.695 5.695 0 014.6 12.175l-.002.003-1.617 1.617A7.972 7.972 0 008.305 16v-2.284a.013.013 0 01-.001-.003zM4.324 11.9a5.696 5.696 0 01-1.537-3.704H.501a7.972 7.972 0 002.203 5.324l1.617-1.617a.01.01 0 01.003-.004zm9.889-3.704a5.696 5.696 0 01-1.537 3.703.01.01 0 01.003.003l1.617 1.618A7.972 7.972 0 0016.5 8.196h-2.287zM12.676 4.1a5.696 5.696 0 011.537 3.704h2.286a7.974 7.974 0 00-2.203-5.323l-1.617 1.617-.003.003zm-3.98-1.813a5.695 5.695 0 013.703 1.537l.003-.003 1.617-1.617A7.973 7.973 0 008.696 0v2.287z"/></svg>