<svg width="20" height="20" fill="none" xmlns="http://www.w3.org/2000/svg"><path d="M15.44 6.403a.586.586 0 00-.929.152 6.751 6.751 0 01-1.1 1.551 7.84 7.84 0 00.065-1.005c0-.645-.087-1.308-.257-1.973A7.928 7.928 0 009.184.065a.586.586 0 00-.853.475 6.727 6.727 0 01-2.804 4.95l-.064.048c-.045.032-.086.063-.125.088a7.983 7.983 0 00-2.459 2.836A7.835 7.835 0 002 12.079c0 .644.086 1.308.257 1.973A7.913 7.913 0 009.92 20c4.368 0 7.921-3.554 7.921-7.921 0-2.154-.853-4.17-2.401-5.676z" fill="#F90"/></svg>