<svg width="108" height="45" fill="none" xmlns="http://www.w3.org/2000/svg"><rect x=".029" width="107.971" height="44.95" rx="6.388" fill="#fff" fill-opacity=".15"/><g clip-path="url(#clip0_82_1729)"><path d="M29.934 19.175h-.826v-3.302a6.61 6.61 0 00-6.604-6.603 6.61 6.61 0 00-6.603 6.603v3.302h-.826a2.48 2.48 0 00-2.476 2.477v11.556a2.48 2.48 0 002.476 2.477h14.859a2.48 2.48 0 002.476-2.477V21.652a2.48 2.48 0 00-2.476-2.477zm-11.832-3.302a4.407 4.407 0 014.402-4.402 4.407 4.407 0 014.403 4.402v3.302h-8.805v-3.302zm5.503 11.801v2.508a1.1 1.1 0 11-2.201 0v-2.508a2.194 2.194 0 01-1.1-1.895c0-1.214.987-2.201 2.2-2.201 1.214 0 2.202.987 2.202 2.201 0 .811-.446 1.513-1.1 1.895z" fill="#64D370"/></g><path d="M45.939 23.225h-4.665V9.458h4.759c1.367 0 2.541.275 3.523.827a5.527 5.527 0 012.272 2.36c.528 1.025.793 2.253.793 3.683 0 1.434-.267 2.666-.8 3.697a5.528 5.528 0 01-2.292 2.373c-.995.551-2.192.827-3.59.827zm-2.171-2.158h2.05c.959 0 1.759-.175 2.4-.524.64-.354 1.122-.88 1.445-1.58.323-.704.484-1.582.484-2.635 0-1.053-.161-1.927-.484-2.622-.323-.699-.8-1.221-1.432-1.566-.627-.35-1.407-.524-2.34-.524h-2.123v9.451zM54.99 9.458h3.052l4.087 9.976h.162l4.087-9.976h3.052v13.767h-2.393v-9.458h-.128l-3.805 9.418h-1.788l-3.805-9.438h-.127v9.478H54.99V9.458zm28.94 4.645h-2.514a3.129 3.129 0 00-.397-1.096 2.947 2.947 0 00-.72-.82 2.998 2.998 0 00-.98-.504 3.83 3.83 0 00-1.177-.175c-.748 0-1.412.188-1.99.565-.578.372-1.03.918-1.358 1.64-.327.717-.49 1.593-.49 2.628 0 1.053.163 1.94.49 2.662.332.717.785 1.26 1.358 1.627.578.363 1.24.545 1.983.545.413 0 .798-.054 1.156-.162.364-.112.688-.275.975-.49a2.994 2.994 0 001.15-1.869l2.514.013a5.414 5.414 0 01-.612 1.842 5.43 5.43 0 01-1.217 1.52 5.611 5.611 0 01-1.76 1.021c-.673.242-1.42.363-2.24.363-1.21 0-2.29-.28-3.24-.84-.95-.56-1.698-1.37-2.245-2.427-.546-1.058-.82-2.326-.82-3.805 0-1.483.276-2.751.827-3.804.551-1.058 1.302-1.867 2.252-2.427.95-.56 2.026-.84 3.227-.84a6.85 6.85 0 012.137.322 5.478 5.478 0 011.762.948c.515.412.938.919 1.27 1.52.336.595.556 1.276.659 2.043zm3.885 9.122h-2.662L90 9.458h3.079l4.853 13.767H95.27l-3.677-10.944h-.107l-3.67 10.944zm.088-5.398h7.26v2.003h-7.26v-2.003z" fill="#fff"/><path d="M41.274 35.59v-6.91h2.463c.538 0 .983.097 1.336.293.353.196.618.463.793.803.176.337.263.718.263 1.14 0 .426-.088.808-.266 1.148a1.932 1.932 0 01-.797.803c-.353.196-.797.294-1.332.294H42.04v-.885h1.6c.339 0 .614-.058.826-.175a1.1 1.1 0 00.465-.486c.1-.205.149-.437.149-.698 0-.261-.05-.493-.148-.696a1.065 1.065 0 00-.47-.475c-.211-.115-.49-.172-.836-.172h-1.31v6.016h-1.042zm6.334 0v-6.91h2.464c.535 0 .98.092 1.333.276.355.185.62.44.796.766.175.324.263.699.263 1.124 0 .423-.089.795-.266 1.117-.176.32-.441.568-.797.745-.353.178-.797.267-1.333.267h-1.866v-.898h1.772c.337 0 .612-.048.823-.145a.96.96 0 00.47-.421c.098-.185.148-.406.148-.665 0-.261-.05-.487-.152-.678a.98.98 0 00-.47-.44c-.21-.103-.488-.154-.832-.154h-1.31v6.016h-1.043zm3.412-3.118l1.707 3.118H51.54l-1.674-3.118h1.154zm8.973-.337c0 .738-.135 1.372-.405 1.903-.27.529-.64.936-1.11 1.221-.468.284-1 .426-1.596.426a3.043 3.043 0 01-1.603-.426 2.976 2.976 0 01-1.107-1.224c-.27-.531-.405-1.165-.405-1.9 0-.738.135-1.371.405-1.9.27-.53.639-.938 1.107-1.221a3.025 3.025 0 011.603-.429 3 3 0 011.596.428c.47.284.84.691 1.11 1.222.27.529.405 1.162.405 1.9zm-1.033 0c0-.563-.09-1.036-.273-1.42-.18-.388-.427-.68-.742-.878-.313-.2-.667-.3-1.063-.3-.398 0-.754.1-1.067.3-.312.198-.56.49-.742.877-.18.385-.27.858-.27 1.42 0 .563.09 1.038.27 1.425.182.384.43.677.742.877.313.198.669.297 1.067.297.396 0 .75-.099 1.063-.297.315-.2.562-.493.742-.877.182-.387.273-.862.273-1.424zm1.952-2.558v-.898h5.348v.898h-2.156v6.013h-1.04v-6.013h-2.152zm6.787 6.013v-6.91h4.332v.897h-3.29v2.106h3.064v.894h-3.064v2.116h3.331v.897h-4.373zm11.721-4.663h-1.052a1.61 1.61 0 00-.63-1.03 1.772 1.772 0 00-.537-.27 2.096 2.096 0 00-.625-.09c-.398 0-.754.1-1.07.3-.312.2-.56.494-.742.88-.18.388-.27.86-.27 1.418 0 .562.09 1.037.27 1.424.183.387.431.68.746.877.315.198.67.297 1.063.297.218 0 .425-.03.62-.088.199-.06.378-.15.537-.266a1.634 1.634 0 00.638-1.016l1.053.003a2.82 2.82 0 01-.328.938c-.16.284-.365.53-.617.736-.25.205-.535.363-.857.476a3.17 3.17 0 01-1.053.169 3.025 3.025 0 01-1.6-.426 2.976 2.976 0 01-1.106-1.224c-.268-.531-.402-1.165-.402-1.9 0-.738.135-1.371.405-1.9.27-.53.64-.938 1.107-1.221a3 3 0 011.596-.429c.367 0 .709.053 1.026.159.32.103.606.256.86.459.255.2.465.445.631.735.167.288.28.618.338.989zm1.165-1.35v-.898h5.348v.898h-2.156v6.013h-1.04v-6.013h-2.152zm6.787 6.013v-6.91h4.332v.897h-3.29v2.106h3.064v.894h-3.064v2.116h3.33v.897h-4.372zm8.219 0h-2.237v-6.91h2.308c.677 0 1.258.138 1.744.415.486.274.859.669 1.117 1.184.261.513.392 1.128.392 1.846 0 .72-.132 1.338-.395 1.855a2.77 2.77 0 01-1.134 1.195c-.495.277-1.093.415-1.795.415zm-1.194-.911h1.137c.526 0 .964-.099 1.312-.297.349-.2.61-.49.783-.867.173-.38.26-.844.26-1.39 0-.543-.087-1.003-.26-1.38a1.836 1.836 0 00-.766-.86c-.34-.197-.761-.295-1.265-.295h-1.201v5.089z" fill="#64D370"/><defs><clipPath id="clip0_82_1729"><path fill="#fff" transform="translate(9.297 9.27)" d="M0 0h26.415v26.415H0z"/></clipPath></defs></svg>