<svg width="24" height="24" fill="none" xmlns="http://www.w3.org/2000/svg"><g clip-path="url(#clip0_70_531)"><path d="M19.792 4.205c1.262 1.255 1.501 3.273.872 5.519-.615 2.194-2.06 4.616-4.19 6.75-2.135 2.13-4.557 3.575-6.75 4.19-2.243.63-4.261.387-5.52-.868a.281.281 0 00.398 0l3.74-3.744a.281.281 0 00-.397-.397l-3.74 3.744a.281.281 0 000 .397c-1.26-1.259-1.498-3.277-.869-5.523.612-2.197 2.057-4.62 4.19-6.75 2.13-2.134 4.553-3.578 6.75-4.19 2.243-.633 4.26-.387 5.52.868a.281.281 0 00-.398 0l-3.47 3.466a.282.282 0 00.398.398l3.47-3.466a.281.281 0 000-.398l-.004.004zm-4.827 5.227a.281.281 0 00-.397-.397l-1.36 1.36L11.415 8.6a.282.282 0 10-.401.397l1.796 1.797-2.014 2.014-1.793-1.796a.282.282 0 10-.4.397l1.796 1.796-1.36 1.36a.281.281 0 00.396.398l1.36-1.36 1.8 1.8a.281.281 0 00.398-.398l-1.8-1.8 2.014-2.014 1.8 1.8a.282.282 0 10.398-.4l-1.8-1.794 1.36-1.364z" fill="#000" fill-opacity=".7"/></g><defs><clipPath id="clip0_70_531"><path fill="#fff" d="M0 0h24v24H0z"/></clipPath></defs></svg>