<svg width="24" height="24" fill="none" xmlns="http://www.w3.org/2000/svg"><path fill-rule="evenodd" clip-rule="evenodd" d="M18.32 23.999H8.098c-.346 0-.28-.405-.28-.659H18.6c0 .255.065.659-.281.659zM7.817 17.882v-.19c-4.526-1.957-4.652-5.26-4.647-5.704-.643-2.562 1.704-4.492 2.314-4.944-.048-.612-.034-.907-.016-1.457.064-1.961.083-2.553 1.084-3.79a.287.287 0 01.026-.03c.086-.08 2.148-1.965 5.837-1.748h2.825c.051.003 5.11-.034 5.694 4.172l.003.03c.002.067.184 6.738-2.336 13.336a1.5 1.5 0 00-.011.323l-10.773.002zm10.608 5H7.993a1.068 1.068 0 01-1.067-1.067v-2.408c0-.588.48-1.067 1.067-1.067h10.432c.588 0 1.067.479 1.067 1.067v.376h-6.535c-.872-1.742-3.517-1.122-3.517.828 0 1.95 2.645 2.57 3.517.828h6.535v.376c0 .588-.479 1.067-1.067 1.067zm-5.292-2.537h6.359v.531h-6.36v-.53z" fill="#000" fill-opacity=".7"/><path fill-rule="evenodd" clip-rule="evenodd" d="M11.296 21.998a1.389 1.389 0 01-1.388-1.387 1.39 1.39 0 011.388-1.387c.765 0 1.387.622 1.387 1.387a1.39 1.39 0 01-1.387 1.387z" fill="#000" fill-opacity=".7"/></svg>