<svg width="21" height="20" fill="none" xmlns="http://www.w3.org/2000/svg"><g clip-path="url(#clip0_205_3687)"><path d="M11.86 13.286a.95.95 0 00-.267-.194 3.22 3.22 0 00-.676-.24v1.79c.375-.043.805-.179 1.002-.528a.817.817 0 00.074-.559.561.561 0 00-.133-.27zm.057.833a.329.329 0 01.003-.005l-.003.005zM9.16 10.425a.754.754 0 00-.078.662.558.558 0 00.216.239c.1.068.21.121.322.166.094.038.2.074.314.109V9.98c-.288.062-.602.193-.774.444zm2.77 3.675l-.01.02.01-.02zm.006-.016c.001-.002.001-.002 0 0z"/><path d="M11.342 4.352C12.864 3.074 13.88.194 13.255.068c-.832-.167-2.637.567-3.51.696-1.236.15-2.585-1.342-3.34-.51-.615.675.44 3.133 2.093 4.204-4.93 2.423-11.859 14.586.23 15.469 16.726 1.221 8.35-13.214 2.615-15.575zm1.437 9.592a1.759 1.759 0 01-.679 1.194c-.396.308-.894.45-1.388.49v.525a.494.494 0 01-.697.447.496.496 0 01-.287-.447v-.573a3.194 3.194 0 01-.252-.058 2.415 2.415 0 01-1.203-.74 2.17 2.17 0 01-.433-.791c-.016-.055-.033-.11-.038-.167a.492.492 0 01.956-.204c.019.056.031.115.052.17a1.254 1.254 0 00.292.438c.174.168.395.277.626.342v-1.947c-.451-.117-.917-.268-1.29-.557a1.5 1.5 0 01-.435-.524 1.637 1.637 0 01-.152-.704 1.678 1.678 0 01.55-1.267c.363-.333.844-.52 1.327-.588V8.44a.5.5 0 01.166-.37.496.496 0 01.532-.078c.172.08.286.257.286.447v.541c.064.008.129.018.192.03.474.085.938.281 1.285.623a1.877 1.877 0 01.463.745c.018.057.037.116.046.176a.493.493 0 01-.946.248c-.02-.053-.031-.11-.052-.164a.939.939 0 00-.313-.399 1.595 1.595 0 00-.675-.263v1.862c.284.068.568.143.84.25.412.162.801.41 1.026.803a1.753 1.753 0 010 .002c.07.12.037.063.002.002.179.315.238.692.199 1.05z"/><path d="M11.916 14.126l-.011.02a.855.855 0 00.01-.02z"/></g><defs><clipPath id="clip0_205_3687"><path fill="#fff" transform="translate(.5)" d="M0 0h20v20H0z"/></clipPath></defs></svg>