<svg width="24" height="24" fill="none" xmlns="http://www.w3.org/2000/svg"><path d="M4.937 19.386v1.294c0 2.267.822 2.888 3.819 2.888h5.236c2.994 0 3.816-.622 3.816-2.888v-1.294H4.938zm8.254-13.99c-.486.003-.996.338-1.274.877a2.03 2.03 0 000 1.834c.254.492.742.705 1.447.889l4.188.79c.25.048.413.285.366.532a.463.463 0 01-.54.361l-2.653-.44c-1.553.884-1.766 2.804-1.766 4.745a.458.458 0 01-.46.454.458.458 0 01-.463-.454c0-1.827.2-3.802 1.533-5.025l-.41-.078c-.831-.215-1.632-.524-2.063-1.362-.026-.049-.044-.098-.065-.146a2.585 2.585 0 01-1.004.876 2.99 2.99 0 01-1.347.313 3.03 3.03 0 01-1.35-.313 2.576 2.576 0 01-1.147-1.123c-.2.205-.44.387-.713.524a3.01 3.01 0 01-1.35.313 3.01 3.01 0 01-1.35-.313 2.609 2.609 0 01-.511-.338L2.25 11.46c-.004 2.476.738 3.405 1.451 4.3.554.695 1.118 1.418 1.213 2.72h12.918c.116-1.367.676-2.056 1.317-2.831.744-.897 1.667-2.012 2.278-4.79.684-3.09.335-4.14-1.563-4.651l-6.673-.81z" fill="#000" fill-opacity=".7"/><path d="M4.071 1.338c-.321 0-.645.072-.931.216-.511.256-.83.714-.87 1.21l-.01 3.587c.026.054.04.116.04.18 0 .531.34 1.034.888 1.31a2.116 2.116 0 001.863-.001c.488-.245.799-.674.862-1.143l-.282-4.594A1.664 1.664 0 005 1.553a2.077 2.077 0 00-.93-.215zm13.216-.128c-.323 0-.644.071-.932.215a1.71 1.71 0 00-.692.638v2.63c0 .032-.01.06-.017.089l3.46.418V2.737c0-.533-.342-1.035-.89-1.312a2.08 2.08 0 00-.93-.215zM8.365.41c-.321 0-.644.07-.93.215-.546.274-.886.775-.888 1.307l.314 5.17c0 .56.34 1.065.887 1.34a2.123 2.123 0 001.861-.003c.548-.275.887-.777.887-1.312l-.313-5.189c0-.534-.34-1.037-.889-1.314A2.079 2.079 0 008.365.41zm4.558 0a2.08 2.08 0 00-.931.215c-.545.274-.886.775-.886 1.307l.216 3.57c.463-.63 1.168-1.01 1.924-1.01l1.496.18V1.935c0-.532-.343-1.034-.89-1.311a2.076 2.076 0 00-.929-.216z" fill="#000" fill-opacity=".7"/></svg>