<svg width="20" height="20" fill="none" xmlns="http://www.w3.org/2000/svg"><path d="M9.063 3.438v4.374a1.25 1.25 0 01-1.25 1.25H3.438a1.25 1.25 0 01-1.25-1.25V3.438a1.25 1.25 0 011.25-1.25h4.374a1.25 1.25 0 011.25 1.25zm7.5-1.25h-4.375a1.25 1.25 0 00-1.25 1.25v4.374a1.25 1.25 0 001.25 1.25h4.374a1.25 1.25 0 001.25-1.25V3.438a1.25 1.25 0 00-1.25-1.25zm-8.75 8.75H3.438a1.25 1.25 0 00-1.25 1.25v4.374a1.25 1.25 0 001.25 1.25h4.374a1.25 1.25 0 001.25-1.25v-4.375a1.25 1.25 0 00-1.25-1.25zm6.562 0a3.438 3.438 0 100 6.875 3.438 3.438 0 000-6.875z"/></svg>