<svg width="21" height="16" fill="none" xmlns="http://www.w3.org/2000/svg"><path d="M18.6 7.713a.291.291 0 00-.083.257l.426 2.481a.291.291 0 01-.422.306l-2.228-1.171a.271.271 0 00-.26 0l-1.636.86-.593.31a.29.29 0 01-.421-.305l.426-2.481a.29.29 0 00-.084-.257l-1.803-1.757a.29.29 0 01.161-.496l.667-.097.794-.115-.001-.001 1.022-.149a.292.292 0 00.219-.159l1.114-2.257a.298.298 0 01.53 0l1.114 2.257a.291.291 0 00.22.16l1.021.148v.001l1.46.212a.29.29 0 01.16.496l-1.802 1.757z"/><path d="M20.404 5.956a.29.29 0 00-.161-.496l-1.46-.212v-.001l-1.022-.149a.291.291 0 01-.218-.159l-1.115-2.257a.298.298 0 00-.53 0l-.087.176.017.028 1.114 2.257a.291.291 0 00.219.16l1.021.148v.001l1.46.212a.29.29 0 01.16.496L18 7.917a.291.291 0 00-.084.257l.426 2.481.001.008.179.094a.29.29 0 00.42-.306l-.425-2.481a.29.29 0 01.084-.257l1.803-1.757z" fill="#1A1A1A"/><path d="M7.275 7.713a.29.29 0 00-.084.257l.426 2.481a.29.29 0 01-.421.306l-.68-.357-1.549-.814a.271.271 0 00-.26 0l-2.229 1.17a.29.29 0 01-.42-.305l.425-2.481a.291.291 0 00-.084-.257L.596 5.956a.29.29 0 01.161-.496l1.46-.212v-.001l1.022-.149a.29.29 0 00.218-.159l1.115-2.257a.298.298 0 01.53 0l1.114 2.257a.292.292 0 00.219.16l1.022.148v.001l.684.1.776.112a.29.29 0 01.16.496L7.276 7.713z"/><path d="M16.915 7.18l-2.487 2.424a.401.401 0 00-.115.355l.084.486-.593.312a.29.29 0 01-.421-.306l.426-2.481a.29.29 0 00-.084-.257l-1.803-1.758a.29.29 0 01.161-.495l.667-.097.205.416a.401.401 0 00.302.22l3.436.499a.4.4 0 01.222.683zm-9.64.533a.29.29 0 00-.084.257l.426 2.481a.29.29 0 01-.421.306l-.68-.357.088-.51a.4.4 0 00-.115-.355L4.003 7.111a.4.4 0 01.222-.683L7.66 5.93a.4.4 0 00.301-.219l.18-.362.775.112a.29.29 0 01.16.495l-1.8 1.757z" fill="#1A1A1A"/><path d="M10.818 2.817l1.537 3.113a.4.4 0 00.301.22l3.436.499a.4.4 0 01.222.683l-2.486 2.423a.401.401 0 00-.115.355l.586 3.422a.4.4 0 01-.58.422l-3.074-1.616a.4.4 0 00-.372 0l-3.074 1.616a.4.4 0 01-.58-.422l.586-3.422a.4.4 0 00-.115-.355L4.604 7.332a.4.4 0 01.222-.683l3.436-.5a.4.4 0 00.301-.219L10.1 2.817a.4.4 0 01.718 0z"/></svg>