<svg width="24" height="24" fill="none" xmlns="http://www.w3.org/2000/svg"><path fill-rule="evenodd" clip-rule="evenodd" d="M22 22c-1.1 0-1.73-.37-2.18-.64-.37-.22-.6-.36-1.15-.36-.56 0-.78.13-1.15.36-.45.27-1.07.64-2.18.64a3.8 3.8 0 01-2.18-.64c-.37-.22-.6-.36-1.15-.36-.56 0-.78.13-1.15.36a3.8 3.8 0 01-2.18.64 3.8 3.8 0 01-2.18-.64c-.37-.22-.6-.36-1.15-.36-.55 0-.78.13-1.15.36-.47.27-1.1.64-2.2.64v-2c.56 0 .78-.13 1.15-.36.45-.27 1.07-.64 2.18-.64s1.73.37 2.18.64c.37.22.6.36 1.15.36.56 0 .78-.13 1.15-.36a3.801 3.801 0 012.18-.64 3.801 3.801 0 012.18.64c.37.22.6.36 1.15.36.55 0 .78-.13 1.15-.36a3.801 3.801 0 012.18-.64 3.801 3.801 0 012.18.64c.37.22.6.36 1.15.36v2H22zm0-4a3.8 3.8 0 01-2.18-.64c-.37-.22-.6-.36-1.15-.36-.56 0-.78.13-1.15.36a3.8 3.8 0 01-2.18.64 3.8 3.8 0 01-2.18-.64c-.37-.22-.6-.36-1.15-.36a1.8 1.8 0 00-1.15.36 3.8 3.8 0 01-2.18.64 3.8 3.8 0 01-2.18-.64c-.37-.22-.6-.36-1.15-.36-.55 0-.78.13-1.15.36-.47.27-1.1.64-2.2.64v-2c.56 0 .78-.13 1.15-.36A3.801 3.801 0 015.33 15a3.801 3.801 0 012.18.64c.37.22.6.36 1.15.36a1.8 1.8 0 001.15-.36 3.801 3.801 0 012.18-.64 3.801 3.801 0 012.18.64c.37.22.6.36 1.15.36.55 0 .78-.13 1.15-.36a3.801 3.801 0 012.18-.64 3.801 3.801 0 012.18.64c.37.22.6.36 1.15.36v2H22zm-10.28-6.9a7 7 0 011.63 1.8l-.02.02c-.1.07-.18.13-.27.2-.3-.08-.64-.15-1.06-.15a3.801 3.801 0 00-2.18.64c-.37.23-.6.36-1.15.36-.55 0-.78-.14-1.15-.36a3.801 3.801 0 00-2.18-.64c-.32 0-.6.04-.83.1-.33-.8-.54-1.6-.6-2.42a9 9 0 003.93 1.15l.47.01a8.998 8.998 0 003.43-.7l-.02-.01zM19 6.3a8 8 0 01.81 4.63 9 9 0 00-1.5-2.57 9 9 0 00-3.65-2.62 7 7 0 012.54-1.78A8 8 0 0119 6.29v.01zM8.76 9.7c-.2-1.2-.1-2.42.33-3.56a7.073 7.073 0 013.03-3.65l.8-.47c.8.1 1.6.35 2.32.7-1.18.7-2.2 1.67-2.95 2.84a9.088 9.088 0 00-1.36 3.73 7 7 0 01-2.17.52l-.02-.1.02-.01zm5.1-2.1a7 7 0 012.91 2.06A7.1 7.1 0 0118.3 13c-.88.07-1.43.37-1.83.6-.18.1-.32.2-.48.26-.14-.45-.3-.9-.53-1.32a9 9 0 00-2.54-3.04c.1-.7.3-1.4.6-2.04l.35.13-.01.01zM7.2 5.44c-.5 1.34-.63 2.77-.46 4.17A7 7 0 014.03 8.3a8 8 0 014.2-5.51c.26-.132.527-.249.8-.35-.8.86-1.4 1.88-1.82 3H7.2z" fill="#000" fill-opacity=".7"/></svg>