<svg width="189" height="75" fill="none" xmlns="http://www.w3.org/2000/svg"><g clip-path="url(#clip0_39_2719)" fill="#fff"><path d="M63.98 18.83l-3.122-1.845-3.826-2.26-1.886 4.704-19.059 47.328-.185.1-3.995 2.329-8.933-5.273 28.358-46.736 2.597-4.284-3.765-2.222-3.213 3.92-35.056 42.786-6.947-4.1.011-3.482 38.02-37.544 3.688-3.64-4.237-2.5L32.08 0 .095 18.665.037 42.02.02 49.126l-.016 7.04 31.9 18.83 6.006-3.504 6.063-3.54 19.925-11.628.09-37.494h-.007zM5.03 21.577L32.063 5.803l6.142 3.627L4.99 35.492l.038-13.91.004-.005zm53.994 2.244l-.068 29.586-9.34 5.457 9.408-35.042zm14.021 40.972V49.587h5.41c5.05 0 7.574 1.603 7.574 4.808 0 1.706-.673 2.97-2.014 3.785-1.342.815-3.198 1.226-5.557 1.226h-3.111v5.391h-2.298l-.004-.004zm2.298-7.19h3.3c3.281-.046 4.922-1.114 4.922-3.212 0-1.08-.443-1.849-1.327-2.313-.885-.465-2.155-.696-3.814-.696h-3.085v6.221h.004zm15.619-.537c0-2.394.828-4.281 2.487-5.65 1.66-1.371 3.807-2.055 6.438-2.055 2.63 0 4.777.684 6.437 2.056 1.659 1.372 2.487 3.255 2.487 5.649s-.835 4.338-2.502 5.783c-1.667 1.445-3.811 2.167-6.422 2.167-2.612 0-4.756-.722-6.423-2.167-1.667-1.445-2.502-3.374-2.502-5.783zm2.434 0c0 1.825.632 3.328 1.894 4.503 1.262 1.176 2.793 1.764 4.596 1.764 1.804 0 3.338-.588 4.597-1.764 1.262-1.175 1.894-2.678 1.894-4.503 0-1.826-.628-3.27-1.879-4.37-1.255-1.099-2.79-1.652-4.612-1.652s-3.356.55-4.611 1.652c-1.255 1.103-1.879 2.556-1.879 4.37zm21.161 7.727V49.587h2.298V63h8.792v1.798h-11.09v-.004zm14.942 0l7.277-15.206h2.407l7.356 15.206h-2.434l-1.867-3.996h-8.573l-1.868 3.996h-2.298zm5.005-5.795h6.872l-3.436-7.232-3.436 7.232zm17.241 5.795V49.587h2.434l10.009 12.378V49.587h2.299v15.206h-2.435L154.043 52.44v12.354h-2.298zm21.296 0V49.587h7.303c2.487 0 4.555.661 6.195 1.987C188.18 52.9 189 54.737 189 57.09c0 2.351-.847 4.223-2.544 5.614-1.693 1.391-3.731 2.09-6.112 2.09h-7.303zm2.298-1.798h4.979c1.587 0 3.02-.542 4.301-1.63 1.282-1.087 1.92-2.513 1.92-4.28 0-1.768-.616-3.16-1.852-4.177-1.236-1.019-2.691-1.526-4.369-1.526h-4.979v11.613zM91.794 24.932l-8.097-13.557H72.939V45.48h10.633V35.396l4.264 10.084h7.919l4.256-10.068V45.48h10.633V11.375h-10.75l-8.1 13.557zm80.597 1.43l15.713-14.426h-14.311l-11.132 10.222V11.936h-11.276v34.105h11.276V35.293l1.886-1.73 10.611 12.478h13.736l-16.503-19.68zm-38.772-2.84c-3.436-.592-7.715-1.326-7.715-2.482 0-1.238 2.831-1.922 4.786-1.922 3.337 0 6.263 1.172 6.263 2.506v1.99h12.625v-1.99c0-6.856-7.393-11.644-17.977-11.644-11.431 0-18.817 4.57-18.817 11.644s9.265 8.769 16.027 10.01c3.818.703 8.142 1.495 8.142 2.775 0 1.556-1.871 2.348-5.56 2.348-1.376 0-5.863-.17-5.863-2.348V32.41H112.1v1.999c0 6.848 7.371 11.628 17.921 11.628 12.288 0 19.924-4.665 19.924-12.174 0-7.509-9.42-9.146-16.326-10.349v.008z"/></g><defs><clipPath id="clip0_39_2719"><path fill="#fff" d="M0 0h189v75H0z"/></clipPath></defs></svg>