<svg width="116" height="43" fill="none" xmlns="http://www.w3.org/2000/svg"><g clip-path="url(#clip0_308_3377)" fill="#003398"><path d="M39.277 10.796l-1.915-1.058-2.346-1.295-1.157 2.696-11.688 27.135-.113.057-2.45 1.335-5.478-3.022L31.52 9.848l1.593-2.456-2.309-1.274-1.97 2.248-21.498 24.53-4.261-2.35.007-1.997L26.397 7.024l2.263-2.087-2.599-1.434L19.714 0 .1 10.701.064 24.092l-.012 4.074-.009 4.036 19.562 10.796 3.684-2.01 3.718-2.029 12.219-6.667.055-21.496h-.004zM3.126 12.37l16.577-9.044 3.767 2.08L3.1 20.349l.024-7.976.002-.002zm33.112 1.287l-.042 16.962-5.728 3.129 5.77-20.091zm8.598 23.491V28.43h3.317c3.097 0 4.645.918 4.645 2.756 0 .978-.412 1.703-1.235 2.17-.823.467-1.961.703-3.408.703h-1.908v3.091h-1.409l-.002-.002zm1.41-4.122h2.023c2.012-.027 3.018-.64 3.018-1.842 0-.62-.271-1.06-.814-1.327-.542-.266-1.321-.398-2.339-.398h-1.891v3.567h.002zm9.577-.309c0-1.372.508-2.454 1.526-3.238 1.017-.787 2.334-1.18 3.947-1.18 1.614 0 2.93.393 3.948 1.18 1.018.786 1.525 1.866 1.525 3.238 0 1.373-.512 2.488-1.534 3.316-1.023.828-2.337 1.243-3.939 1.243-1.602 0-2.916-.415-3.938-1.243-1.022-.828-1.535-1.934-1.535-3.316zm1.493 0c0 1.047.387 1.908 1.161 2.582.775.675 1.714 1.012 2.82 1.012 1.105 0 2.046-.337 2.818-1.012.774-.674 1.162-1.535 1.162-2.582 0-1.046-.385-1.875-1.153-2.505-.77-.63-1.71-.947-2.828-.947-1.117 0-2.058.315-2.828.947-.77.633-1.152 1.465-1.152 2.505zm12.977 4.431V28.43h1.41v7.689h5.391v1.031h-6.801v-.002zm9.163 0l4.463-8.718h1.476l4.511 8.718h-1.493l-1.145-2.292h-5.257l-1.145 2.292h-1.41zm3.07-3.323h4.214l-2.107-4.146-2.108 4.146zm10.572 3.323V28.43h1.493l6.139 7.096V28.43h1.409v8.718h-1.493l-6.138-7.084v7.084h-1.41zm13.06 0V28.43h4.479c1.525 0 2.793.379 3.799 1.139 1.006.76 1.509 1.813 1.509 3.161 0 1.349-.519 2.422-1.56 3.22-1.038.797-2.288 1.198-3.748 1.198h-4.479zm1.41-1.031h3.053c.973 0 1.852-.311 2.638-.934.786-.624 1.177-1.441 1.177-2.455 0-1.013-.377-1.81-1.135-2.395-.759-.584-1.651-.874-2.68-.874h-3.053v6.658zM56.333 14.294l-4.965-7.773h-6.597v19.554h6.52v-5.781l2.615 5.781h4.857l2.61-5.773v5.773h6.52V6.521h-6.592l-4.968 7.773zm49.427.82l9.636-8.271h-8.776l-6.827 5.86v-5.86h-6.915v19.553h6.915v-6.162l1.157-.992 6.507 7.154h8.424L105.76 15.114zm-23.777-1.628c-2.107-.34-4.73-.76-4.73-1.424 0-.709 1.735-1.101 2.934-1.101 2.047 0 3.84.672 3.84 1.436v1.142h7.743v-1.142c0-3.93-4.534-6.675-11.024-6.675-7.01 0-11.54 2.62-11.54 6.675 0 4.056 5.682 5.028 9.829 5.74 2.341.403 4.993.857 4.993 1.59 0 .893-1.148 1.347-3.41 1.347-.844 0-3.595-.097-3.595-1.347v-1.145h-8.237v1.145c0 3.927 4.52 6.667 10.99 6.667 7.537 0 12.22-2.674 12.22-6.98 0-4.305-5.777-5.243-10.013-5.933v.005z"/></g><defs><clipPath id="clip0_308_3377"><path fill="#fff" transform="translate(.04)" d="M0 0h115.905v43H0z"/></clipPath></defs></svg>