<svg width="28" height="28" fill="none" xmlns="http://www.w3.org/2000/svg"><g clip-path="url(#clip0_119_2243)"><path d="M14 28c7.732 0 14-6.268 14-14S21.732 0 14 0 0 6.268 0 14s6.268 14 14 14z" fill="#03A9F4"/><path d="M23.069 8.376a7.737 7.737 0 01-2.143.588 3.696 3.696 0 001.636-2.056 7.428 7.428 0 01-2.358.9 3.717 3.717 0 00-6.432 2.543c-.003.285.026.569.086.847A10.53 10.53 0 016.193 7.31a3.721 3.721 0 001.144 4.973 3.67 3.67 0 01-1.68-.458v.04a3.736 3.736 0 002.979 3.651 3.713 3.713 0 01-.975.122 3.321 3.321 0 01-.705-.063 3.756 3.756 0 003.476 2.59A7.477 7.477 0 014.937 19.7a10.46 10.46 0 005.71 1.669c6.844 0 10.585-5.669 10.585-10.582 0-.164 0-.322-.013-.48a7.397 7.397 0 001.85-1.93z" fill="#fff"/></g><defs><clipPath id="clip0_119_2243"><path fill="#fff" d="M0 0h28v28H0z"/></clipPath></defs></svg>