<svg width="26" height="26" fill="none" xmlns="http://www.w3.org/2000/svg"><path d="M26 13c0 6.489-4.754 11.867-10.969 12.842v-9.084h3.03L18.636 13H15.03v-2.438c0-1.029.504-2.03 2.119-2.03h1.64v-3.2s-1.489-.254-2.911-.254c-2.97 0-4.91 1.8-4.91 5.058V13h-3.3v3.758h3.3v9.084C4.755 24.867 0 19.49 0 13 0 5.82 5.82 0 13 0s13 5.82 13 13z" fill="#1877F2"/><path d="M18.06 16.758L18.637 13H15.03v-2.439c0-1.028.504-2.03 2.119-2.03h1.64V5.332s-1.489-.254-2.911-.254c-2.97 0-4.91 1.8-4.91 5.058V13h-3.3v3.758h3.3v9.084a13.092 13.092 0 004.063 0v-9.084h3.03z" fill="#fff"/></svg>