<svg xmlns="http://www.w3.org/2000/svg" width="357.2mm" height="90.48mm" viewBox="0 0 1012.54 256.47"><defs><style>.cls-1{fill:#842123}</style></defs><path class="cls-1" d="M0 0h1012.54v256.47H0z" id="BG"/><path d="M890.54 166v50.64h-273L575.14 166zm-521.15 0l15.3 50.64h62.4l16.2-50.64zm125.79 0v50.64h56.72V166zm-246.31 0l16.21 50.64h62.39L343.59 166zm-99.07 0q-6.7 7.48-18.64 7.48T112.52 166H49.81q5.23 19.86 19 33.13Q91 220.6 130.67 220.61t61.9-21.46q13.73-13.26 19-33.13zm63.56-8.69h-58.6q2.78-7.92 2.79-20.08v-31.86h57.22V139a113.91 113.91 0 01-1.41 18.33zm-108.59-20.06v-31.88h-58.2V139A115.1 115.1 0 0048 157.33h59.59q-2.82-7.92-2.82-20.08zm834.28-31.88H608.63v17.08l-14.29-17.08h-99.16v52h56.72v-19.1l16 19.1h371.15zm-456.35 0h-55.25l-12.18 38-11.51-38h-92l-11.93 36.81-11.28-36.81h-59.09l16.63 52h100.26l10.47-32.91 9.94 32.91h99.31zm-52.47-8.68L447.09 44H543l44.06 52.67h-91.9v-30.3l-9.7 30.32zm535.38 0V44h-357v52.69zm-564.48 0L385.18 44h-53.51L314.6 96.69zm-186.36 0V59.44l11.92 37.25h59.22L269.76 44H157.55v52.69zm-110 0V44h-58.2v52.69z" fill="#fff" id="back"/><g id="text"><path id="textName" class="cls-1" d="M660.77 85.69q-4.59-4.56-4.59-13V51.1h8.91v21.23q0 10.33 8.58 10.34a8.05 8.05 0 006.38-2.51c1.47-1.66 2.2-4.28 2.2-7.83V51.1h8.8v21.56q0 8.46-4.59 13t-12.85 4.57q-8.25.03-12.84-4.54zm53.1-11.22l-5.17 5.39v9.74h-8.85V51.1h8.85v18l17-18h9.9l-15.9 17.16 16.89 21.34h-10.4zm51.21 15.13l-7.43-10.73h-8.19V89.6h-8.91V51.1h16.66a21.4 21.4 0 018.89 1.7 13.24 13.24 0 015.8 4.84 13.4 13.4 0 012 7.43 12.54 12.54 0 01-7.9 12.15l8.64 12.38zm-2.26-29.51c-1.39-1.16-3.43-1.73-6.1-1.73h-7.26v13.42h7.26a9.26 9.26 0 006.1-1.76 6.11 6.11 0 002.09-5 6.07 6.07 0 00-2.09-4.93zm43.51 21.26h-17.88L785 89.6h-9.13l17.16-38.5h8.8l17.22 38.5h-9.35zm-2.81-6.77l-6.1-14.74-6.11 14.74zM823.1 51.1h8.9v38.5h-8.9zm53.35 0v38.5h-7.31l-19.2-23.38V89.6h-8.8V51.1h7.37l19.14 23.37V51.1zm38.94 31.35v7.15h-29.81V51.1h29.1v7.15h-20.24v8.36h17.87v6.93h-17.87v8.91zm-196.33 28.92l-12.59 38.5h-9.57l-8.47-26.07-8.75 26.07h-9.51l-12.65-38.5h9.24l8.69 27.06 9.07-27.06h8.25l8.8 27.28 9-27.28zM731.41 148a19.3 19.3 0 01-7.54-7.12 20.5 20.5 0 010-20.41 19.16 19.16 0 017.54-7.12 23.79 23.79 0 0121.59 0 19.64 19.64 0 010 34.65 23.87 23.87 0 01-21.59 0zm17-6.58a11.18 11.18 0 004.31-4.37 13.75 13.75 0 000-12.76 11.25 11.25 0 00-4.31-4.37 12.87 12.87 0 00-12.32 0 11.2 11.2 0 00-4.32 4.37 13.75 13.75 0 000 12.76 11.14 11.14 0 004.32 4.37 12.87 12.87 0 0012.32 0zm46.14 8.5l-7.42-10.72h-8.2v10.72H770v-38.5h16.67a21.32 21.32 0 018.88 1.71 12.75 12.75 0 017.84 12.26 12.58 12.58 0 01-7.92 12.16l8.63 12.37zm-2.25-29.5a9.35 9.35 0 00-6.11-1.74h-7.29v13.42h7.26c2.68 0 4.71-.58 6.11-1.76a6.93 6.93 0 000-9.92zm18.14-9h8.91v31.24h19.31v7.26h-28.25zm33.22 0h17.49a24.55 24.55 0 0111.09 2.4 18 18 0 017.48 6.73 20.58 20.58 0 010 20.24 17.92 17.92 0 01-7.48 6.74 24.55 24.55 0 01-11.09 2.39h-17.52zm17 31.19a13 13 0 009.22-3.22 12.79 12.79 0 000-17.43q-3.45-3.22-9.22-3.22h-8.14v23.87zm-162.25 28.04v38.5h-7.31l-19.19-23.38v23.38h-8.8v-38.5h7.36L689.61 194v-23.35zM737.35 202v7.15h-29.81v-38.5h29.1v7.15H716.4v8.36h17.87v6.93H716.4V202zm64.74-31.35l-12.6 38.5h-9.57l-8.47-26.07-8.74 26.07h-9.51l-12.66-38.5h9.24l8.69 27.06 9.08-27.06h8.25l8.8 27.28 9-27.28zm8.77 37.92a20.7 20.7 0 01-6.85-3.22l3-6.71a20.46 20.46 0 005.88 2.92 22.25 22.25 0 006.82 1.1 10.91 10.91 0 005.61-1.13 3.41 3.41 0 001.82-3 2.89 2.89 0 00-1.07-2.28 8.42 8.42 0 00-2.75-1.46c-1.12-.36-2.63-.77-4.54-1.21a61.07 61.07 0 01-7.21-2.09 11.64 11.64 0 01-4.81-3.35 9 9 0 01-2-6.16 10.73 10.73 0 011.82-6.08 12.28 12.28 0 015.47-4.32A22.41 22.41 0 01821 170a29.33 29.33 0 017.2.88 21.34 21.34 0 016.16 2.53l-2.75 6.76a21.5 21.5 0 00-10.67-3 10 10 0 00-5.52 1.21 3.7 3.7 0 00-1.79 3.19 3.12 3.12 0 002.06 2.94 32.46 32.46 0 006.3 1.9 62.8 62.8 0 017.2 2.09 12 12 0 014.82 3.3 8.83 8.83 0 012 6.1 10.53 10.53 0 01-1.84 6 12.38 12.38 0 01-5.53 4.31 22.37 22.37 0 01-9 1.6 31.35 31.35 0 01-8.78-1.24z"/></g></svg>