<svg width="51" height="50" fill="none" xmlns="http://www.w3.org/2000/svg"><path d="M33.313 35.938a3.125 3.125 0 100-6.25 3.125 3.125 0 000 6.25zM11.438 14.063a3.125 3.125 0 100-6.25 3.125 3.125 0 000 6.25zm31.25 34.375a6.25 6.25 0 116.25-6.25 6.269 6.269 0 01-6.25 6.25zm0-9.376a3.125 3.125 0 103.124 3.126 3.135 3.135 0 00-3.124-3.126z" fill="#181818"/><path d="M47.375 25A21.939 21.939 0 0025.5 3.125a20.38 20.38 0 00-10.625 2.813l1.719 2.656a38.153 38.153 0 013.75-1.563 39.273 39.273 0 00-4.219 16.407H6.75a17.42 17.42 0 012.188-7.344l-2.344-2.031A21.628 21.628 0 003.625 25 21.872 21.872 0 0025.5 46.875a20.883 20.883 0 008.125-1.562l-.938-2.97a17.878 17.878 0 01-8.124 1.407 32.923 32.923 0 01-5.313-17.187h27.969c.129-.51.182-1.037.156-1.563zM20.5 43.125a20.343 20.343 0 01-8.281-4.844A19.539 19.539 0 016.75 26.563h9.375A39.066 39.066 0 0020.5 43.125zm-1.25-19.687A33.51 33.51 0 0124.406 6.25h2.188a33.51 33.51 0 015.156 17.188h-12.5zm15.625 0A36.372 36.372 0 0030.5 6.875a18.894 18.894 0 0113.594 16.563h-9.219z" fill="#181818"/></svg>