<svg width="51" height="50" fill="none" xmlns="http://www.w3.org/2000/svg"><path d="M7.085 9.31a13.542 13.542 0 0118.417-.682 13.542 13.542 0 0119.12 19.07l-16.176 16.23a4.167 4.167 0 01-5.665.212l-.23-.21L6.378 27.698a13.542 13.542 0 01.708-18.387zm2.946 2.947a9.375 9.375 0 00-.304 12.937l.304.321L25.5 40.984l11.048-11.05-7.365-7.365-2.208 2.209a6.249 6.249 0 01-10.672-4.418 6.25 6.25 0 011.83-4.42l4.38-4.381a9.377 9.377 0 00-12.161.394l-.32.304zm17.68 5.891a2.083 2.083 0 012.945 0l8.838 8.838 1.475-1.471a9.375 9.375 0 00-12.94-13.563l-.319.305-6.629 6.629a2.083 2.083 0 00-.162 2.765l.162.18a2.083 2.083 0 002.765.163l.18-.162 3.684-3.684z" fill="#181818"/></svg>