<svg width="51" height="50" fill="none" xmlns="http://www.w3.org/2000/svg"><path d="M42.83 8.296L26.236 2.642a2.401 2.401 0 00-.737-.103c-.269 0-.537.034-.737.103L8.17 8.296c-.405.137-.737.605-.737 1.035v23.555c0 .43.278.996.615 1.264l16.83 13.116c.172.132.391.2.616.2a1 1 0 00.615-.2L42.941 34.15c.337-.263.616-.83.616-1.264V9.33c.01-.43-.323-.893-.728-1.035zm-2.78 23.652L25.5 43.286 10.95 31.948V11.07L25.5 6.11l14.55 4.96v20.88zm-19.814-9.814a.786.786 0 00-.634-.323h-2.696a.392.392 0 00-.317.62l6.172 8.497a.786.786 0 001.27 0l10.38-14.292a.392.392 0 00-.317-.62h-2.696a.793.793 0 00-.634.322l-7.369 10.146-3.159-4.35z" fill="#181818"/></svg>