<svg width="51" height="50" fill="none" xmlns="http://www.w3.org/2000/svg"><path d="M19.256 12.5a6.244 6.244 0 1112.488 0 6.244 6.244 0 01-12.488 0zM25.5 9.38a3.119 3.119 0 100 6.238 3.119 3.119 0 000-6.237zm9.375 4.682a4.687 4.687 0 119.373 0 4.687 4.687 0 01-9.373 0zm4.688-1.562a1.562 1.562 0 100 3.125 1.562 1.562 0 000-3.125zM11.436 9.375a4.688 4.688 0 100 9.375 4.688 4.688 0 000-9.375zm-1.562 4.687a1.562 1.562 0 113.125 0 1.562 1.562 0 01-3.125 0zm3.963 7.813A6.219 6.219 0 0013 25H6.75v7.812a4.687 4.687 0 006.55 4.303 12.534 12.534 0 001.063 2.944 7.812 7.812 0 01-10.738-7.247V25a3.125 3.125 0 013.125-3.125h7.088zm22.8 18.184a7.812 7.812 0 0010.737-7.247V25a3.125 3.125 0 00-3.125-3.125h-7.087A6.22 6.22 0 0138 25h6.25v7.812a4.687 4.687 0 01-6.55 4.303 12.67 12.67 0 01-1.063 2.944zM19.25 21.872a3.125 3.125 0 00-3.125 3.125v9.378a9.375 9.375 0 1018.75 0V25a3.125 3.125 0 00-3.125-3.125h-12.5v-.003zm0 3.125h12.5v9.378a6.25 6.25 0 01-12.5 0v-9.378z" fill="#000"/></svg>