<svg width="113" height="32" fill="none" xmlns="http://www.w3.org/2000/svg"><path d="M19.32 14.935l1.142-3.982h5.298c2.79 0 4.474-1.27 5.26-3.944l.431-1.476c.992-3.402-.617-5.514-4.137-5.514H4.287L0 14.935h19.32zm7.956-10.916l-.898 3.252h-4.849l.918-3.234h4.83V4.02zm6.141 10.916l1.423-2.505h6.552v2.505h4.306V0h-8.462L28.42 14.935h4.998zm6.197-10.879h1.778v4.748H36.9l2.715-4.748zM63.277 6.86l.393-1.346C64.662 2.074 63.052 0 59.533 0h-8.181l-4.287 14.935h4.474l1.18-4.113h2.789l1.273 4.113h4.605l-1.348-4.393c1.61-.486 2.677-1.72 3.239-3.682zm-8.63-2.841h4.83l-.899 3.233h-4.849l.918-3.233zM67.47 14.935L71.758 0h-4.493l-4.269 14.935h4.474zm-27.464 2.112l-5.055 5.962-2.078-5.962H13.48L9.211 32h19.338l2.36-8.262 1.572 4.617h2.883l4.175-4.916L37.068 32h4.474l4.268-14.953h-5.803zm11.813 0L42.983 31.98h4.999l1.423-2.504h6.552v2.504h4.306V17.065l-8.443-.018zm-.337 8.84l2.696-4.747h1.778v4.748h-4.474zm23.944-4.56l1.217-4.28h-13.61l-1.217 4.28h4.923L63.67 32h4.474l3.07-10.673h4.213zm5.972 0h6.796l1.235-4.262h-7.245c-2.79 0-4.474 1.271-5.26 3.944l-1.592 5.458c-1.01 3.496.618 5.514 4.138 5.514h5.635l1.217-4.261h-6.796l1.872-6.393zm19.62-4.28l-1.536 5.345h-5.13l1.517-5.345h-4.474L87.128 32h4.474l1.516-5.346h5.13L96.73 32h4.494l4.268-14.953h-4.474zM104.239 32h4.474L113 17.065h-4.493L104.239 32z" fill="#F6FF00"/></svg>